<svg width="134" height="84" viewBox="0 0 134 84" fill="none" xmlns="http://www.w3.org/2000/svg">
<path d="M91.8005 48.1667L124.183 69.639C124.65 69.948 125.192 70.1252 125.752 70.1519C126.312 70.1785 126.869 70.0536 127.364 69.7903C127.858 69.5271 128.271 69.1354 128.56 68.657C128.848 68.1786 129 67.6314 129 67.0737V16.5317C129.001 15.9891 128.857 15.4562 128.584 14.9866C128.311 14.517 127.918 14.1274 127.445 13.8572C126.972 13.5869 126.435 13.4456 125.89 13.4474C125.345 13.4493 124.809 13.5942 124.338 13.8677L91.8005 32.75M17.4005 5H79.4005C86.2488 5 91.8005 10.5218 91.8005 17.3333V66.6667C91.8005 73.4782 86.2488 79 79.4005 79H17.4005C10.5522 79 5.00049 73.4782 5.00049 66.6667V17.3333C5.00049 10.5218 10.5522 5 17.4005 5Z" stroke="white" stroke-width="10" stroke-linecap="round" stroke-linejoin="round"/>
</svg>
